<svg xmlns="http://www.w3.org/2000/svg" viewBox="0 0 100 100" fill="none">
  <!-- Brand blue circle -->
  <circle cx="50" cy="50" r="50" fill="#007AF4"/>

  <!-- Swirl arcs connecting the sparkles -->
  <path d="M34,36 Q50,22 66,36" fill="none" stroke="white" stroke-width="4.5" stroke-linecap="round" opacity="0.9"/>
  <path d="M66,36 Q80,50 66,64" fill="none" stroke="white" stroke-width="4.5" stroke-linecap="round" opacity="0.9"/>
  <path d="M66,64 Q50,78 34,64" fill="none" stroke="white" stroke-width="4.5" stroke-linecap="round" opacity="0.9"/>
  <path d="M34,64 Q20,50 34,36" fill="none" stroke="white" stroke-width="4.5" stroke-linecap="round" opacity="0.9"/>

  <!-- 4-pointed sparkle stars -->
  <path d="M34,25 C35.8,31 35.8,31 42,33 C35.8,35 35.8,35 34,41 C32.2,35 32.2,35 26,33 C32.2,31 32.2,31 34,25Z" fill="white"/>
  <path d="M66,25 C67.8,31 67.8,31 74,33 C67.8,35 67.8,35 66,41 C64.2,35 64.2,35 58,33 C64.2,31 64.2,31 66,25Z" fill="white"/>
  <path d="M34,59 C35.8,65 35.8,65 42,67 C35.8,69 35.8,69 34,75 C32.2,69 32.2,69 26,67 C32.2,65 32.2,65 34,59Z" fill="white"/>
  <path d="M66,59 C67.8,65 67.8,65 74,67 C67.8,69 67.8,69 66,75 C64.2,69 64.2,69 58,67 C64.2,65 64.2,65 66,59Z" fill="white"/>
</svg>
